<mxfile host="Electron" agent="Mozilla/5.0 (Macintosh; Intel Mac OS X 10_15_7) AppleWebKit/537.36 (KHTML, like Gecko) draw.io/24.7.5 Chrome/126.0.6478.183 Electron/31.3.0 Safari/537.36" version="24.7.5">
  <diagram id="P3egCbBItE-vjyixLVVF" name="Page-1">
    <mxGraphModel dx="1085" dy="628" grid="1" gridSize="10" guides="1" tooltips="1" connect="1" arrows="1" fold="1" page="1" pageScale="1" pageWidth="1100" pageHeight="850" math="0" shadow="0">
      <root>
        <mxCell id="0" />
        <mxCell id="1" parent="0" />
        <mxCell id="liRwYnTsoyuQuVsUjCXV-4" value="Additive Manufacturing System" style="rounded=1;whiteSpace=wrap;html=1;fillColor=#eeeeee;verticalAlign=middle;shadow=1;strokeColor=#36393d;" parent="1" vertex="1">
          <mxGeometry x="350" y="320" width="270" height="50" as="geometry" />
        </mxCell>
        <mxCell id="liRwYnTsoyuQuVsUjCXV-9" value="Experiment Planning System" style="rounded=1;whiteSpace=wrap;html=1;fillColor=#eeeeee;verticalAlign=middle;shadow=1;strokeColor=#36393d;" parent="1" vertex="1">
          <mxGeometry x="220" y="470" width="130" height="50" as="geometry" />
        </mxCell>
        <mxCell id="liRwYnTsoyuQuVsUjCXV-7" value="Design of Experiments Analysis System" style="rounded=1;whiteSpace=wrap;html=1;fillColor=#eeeeee;verticalAlign=middle;shadow=1;strokeColor=#36393d;" parent="1" vertex="1">
          <mxGeometry x="865" y="470" width="140" height="50" as="geometry" />
        </mxCell>
        <mxCell id="liRwYnTsoyuQuVsUjCXV-6" value="Spallation Neutron Source System" style="rounded=1;whiteSpace=wrap;html=1;fillColor=#eeeeee;verticalAlign=middle;shadow=1;strokeColor=#36393d;" parent="1" vertex="1">
          <mxGeometry x="750" y="320" width="120" height="50" as="geometry" />
        </mxCell>
        <mxCell id="liRwYnTsoyuQuVsUjCXV-5" value="Experiment Steering&amp;nbsp;Analysis System" style="rounded=1;whiteSpace=wrap;html=1;fillColor=#eeeeee;verticalAlign=middle;shadow=1;strokeColor=#36393d;" parent="1" vertex="1">
          <mxGeometry x="430" y="400" width="110" height="60" as="geometry" />
        </mxCell>
        <mxCell id="8yW3HtKEOS8D6HbiddwS-1" value="Experiment Plan:&lt;div&gt;Print Structure&lt;/div&gt;" style="sketch=0;pointerEvents=1;shadow=0;dashed=0;html=1;strokeColor=none;fillColor=#505050;labelPosition=center;verticalLabelPosition=top;verticalAlign=bottom;outlineConnect=0;align=center;shape=mxgraph.office.concepts.document;horizontal=1;" parent="1" vertex="1">
          <mxGeometry x="270" y="325" width="30" height="40" as="geometry" />
        </mxCell>
        <mxCell id="ZZdG2KbTojn6cw3QZEdF-6" value="" style="endArrow=classic;html=1;rounded=0;entryX=0.982;entryY=0.338;entryDx=0;entryDy=0;strokeColor=#007FFF;entryPerimeter=0;" parent="1" target="liRwYnTsoyuQuVsUjCXV-5" edge="1">
          <mxGeometry width="50" height="50" relative="1" as="geometry">
            <mxPoint x="580" y="370" as="sourcePoint" />
            <mxPoint x="550" y="420" as="targetPoint" />
            <Array as="points">
              <mxPoint x="580" y="420" />
            </Array>
          </mxGeometry>
        </mxCell>
        <mxCell id="ZZdG2KbTojn6cw3QZEdF-7" value="" style="endArrow=classic;html=1;rounded=0;strokeColor=#007FFF;" parent="1" edge="1">
          <mxGeometry width="50" height="50" relative="1" as="geometry">
            <mxPoint x="430" y="420" as="sourcePoint" />
            <mxPoint x="390" y="370" as="targetPoint" />
            <Array as="points">
              <mxPoint x="390" y="420" />
            </Array>
          </mxGeometry>
        </mxCell>
        <mxCell id="ivcJ0Vw7QY5pCtP25yYA-2" value="" style="shape=flexArrow;endArrow=classic;html=1;rounded=0;endSize=5;startSize=5;startArrow=block;" parent="1" source="ZZdG2KbTojn6cw3QZEdF-1" edge="1">
          <mxGeometry width="50" height="50" relative="1" as="geometry">
            <mxPoint x="385" y="550" as="sourcePoint" />
            <mxPoint x="510" y="305" as="targetPoint" />
          </mxGeometry>
        </mxCell>
        <mxCell id="ivcJ0Vw7QY5pCtP25yYA-10" value="" style="shape=flexArrow;endArrow=classic;html=1;rounded=0;endSize=5;startSize=5;entryX=0;entryY=0.5;entryDx=0;entryDy=0;" parent="1" target="liRwYnTsoyuQuVsUjCXV-4" edge="1">
          <mxGeometry width="50" height="50" relative="1" as="geometry">
            <mxPoint x="310" y="345" as="sourcePoint" />
            <mxPoint x="340" y="344.81" as="targetPoint" />
          </mxGeometry>
        </mxCell>
        <mxCell id="ivcJ0Vw7QY5pCtP25yYA-19" value="" style="shape=flexArrow;endArrow=classic;html=1;rounded=0;startArrow=block;startSize=5;endSize=5;" parent="1" source="ivcJ0Vw7QY5pCtP25yYA-18" edge="1">
          <mxGeometry width="50" height="50" relative="1" as="geometry">
            <mxPoint x="370" y="490" as="sourcePoint" />
            <mxPoint x="400" y="305" as="targetPoint" />
          </mxGeometry>
        </mxCell>
        <mxCell id="ivcJ0Vw7QY5pCtP25yYA-20" value="" style="shape=flexArrow;endArrow=classic;html=1;rounded=0;endSize=5;startSize=5;strokeColor=#007FFF;" parent="1" edge="1">
          <mxGeometry width="50" height="50" relative="1" as="geometry">
            <mxPoint x="600" y="370" as="sourcePoint" />
            <mxPoint x="540" y="440" as="targetPoint" />
            <Array as="points">
              <mxPoint x="600" y="440" />
            </Array>
          </mxGeometry>
        </mxCell>
        <mxCell id="ivcJ0Vw7QY5pCtP25yYA-21" value="" style="shape=flexArrow;endArrow=classic;html=1;rounded=0;endSize=5;startSize=5;strokeColor=#007FFF;" parent="1" edge="1">
          <mxGeometry width="50" height="50" relative="1" as="geometry">
            <mxPoint x="430" y="440" as="sourcePoint" />
            <mxPoint x="370" y="370" as="targetPoint" />
            <Array as="points">
              <mxPoint x="370" y="440" />
            </Array>
          </mxGeometry>
        </mxCell>
        <mxCell id="53u_tNHBsubDG4iRoRXi-1" value="Experiment Result:&lt;div&gt;Printed Structure&lt;/div&gt;" style="sketch=0;pointerEvents=1;shadow=0;dashed=0;html=1;strokeColor=none;fillColor=#505050;labelPosition=center;verticalLabelPosition=top;verticalAlign=bottom;outlineConnect=0;align=center;shape=mxgraph.office.concepts.document;" parent="1" vertex="1">
          <mxGeometry x="670" y="325" width="30" height="40" as="geometry" />
        </mxCell>
        <mxCell id="53u_tNHBsubDG4iRoRXi-2" value="" style="shape=flexArrow;endArrow=classic;html=1;rounded=0;endSize=5;startSize=5;exitX=1;exitY=0.5;exitDx=0;exitDy=0;" parent="1" edge="1">
          <mxGeometry width="50" height="50" relative="1" as="geometry">
            <mxPoint x="620" y="344.81" as="sourcePoint" />
            <mxPoint x="660" y="344.81" as="targetPoint" />
          </mxGeometry>
        </mxCell>
        <mxCell id="FbyAllKG4PkfHrCSDohA-5" value="&amp;nbsp;Control&amp;nbsp;" style="endArrow=classic;html=1;rounded=0;entryX=0;entryY=0.5;entryDx=0;entryDy=0;" parent="1" edge="1">
          <mxGeometry width="50" height="50" relative="1" as="geometry">
            <mxPoint x="120" y="334.62" as="sourcePoint" />
            <mxPoint x="190" y="334.62" as="targetPoint" />
          </mxGeometry>
        </mxCell>
        <mxCell id="FbyAllKG4PkfHrCSDohA-6" value="&amp;nbsp;Data&amp;nbsp;" style="shape=flexArrow;endArrow=classic;html=1;rounded=0;endSize=5;startSize=5;" parent="1" edge="1">
          <mxGeometry width="50" height="50" relative="1" as="geometry">
            <mxPoint x="120" y="364.6199999999999" as="sourcePoint" />
            <mxPoint x="190" y="364.6199999999999" as="targetPoint" />
          </mxGeometry>
        </mxCell>
        <mxCell id="BlkbCB-FxylbQSZlHxT3-4" value="Experiment&lt;br&gt;Design Plan" style="sketch=0;pointerEvents=1;shadow=0;dashed=0;html=1;strokeColor=none;fillColor=#505050;labelPosition=center;verticalLabelPosition=top;verticalAlign=bottom;outlineConnect=0;align=center;shape=mxgraph.office.concepts.document;" parent="1" vertex="1">
          <mxGeometry x="130" y="475" width="30" height="40" as="geometry" />
        </mxCell>
        <mxCell id="BlkbCB-FxylbQSZlHxT3-7" value="" style="endArrow=classic;html=1;rounded=0;strokeColor=#FF6666;fontColor=#FF6666;entryX=1.009;entryY=0.312;entryDx=0;entryDy=0;exitX=-0.001;exitY=0.3;exitDx=0;exitDy=0;exitPerimeter=0;entryPerimeter=0;" parent="1" source="liRwYnTsoyuQuVsUjCXV-7" target="liRwYnTsoyuQuVsUjCXV-9" edge="1">
          <mxGeometry width="50" height="50" relative="1" as="geometry">
            <mxPoint x="740" y="525" as="sourcePoint" />
            <mxPoint x="351.1700000000001" y="524.75" as="targetPoint" />
            <Array as="points" />
          </mxGeometry>
        </mxCell>
        <mxCell id="BlkbCB-FxylbQSZlHxT3-9" value="" style="shape=flexArrow;endArrow=classic;html=1;rounded=0;endSize=5;startSize=5;entryX=0.007;entryY=0.418;entryDx=0;entryDy=0;entryPerimeter=0;" parent="1" edge="1">
          <mxGeometry width="50" height="50" relative="1" as="geometry">
            <mxPoint x="170" y="494.80999999999995" as="sourcePoint" />
            <mxPoint x="209.99999999999994" y="494.81000000000006" as="targetPoint" />
          </mxGeometry>
        </mxCell>
        <mxCell id="BlkbCB-FxylbQSZlHxT3-13" value="" style="shape=flexArrow;endArrow=classic;html=1;rounded=0;endSize=5;startSize=5;strokeColor=#FF6666;fontColor=#FF6666;exitX=0.007;exitY=0.708;exitDx=0;exitDy=0;exitPerimeter=0;entryX=1.004;entryY=0.697;entryDx=0;entryDy=0;entryPerimeter=0;" parent="1" source="liRwYnTsoyuQuVsUjCXV-7" target="liRwYnTsoyuQuVsUjCXV-9" edge="1">
          <mxGeometry width="50" height="50" relative="1" as="geometry">
            <mxPoint x="710" y="530" as="sourcePoint" />
            <mxPoint x="350" y="545" as="targetPoint" />
            <Array as="points" />
          </mxGeometry>
        </mxCell>
        <mxCell id="BlkbCB-FxylbQSZlHxT3-14" value="" style="shape=flexArrow;endArrow=classic;html=1;rounded=0;endSize=5;startSize=5;strokeColor=#B5739D;exitX=0.5;exitY=0;exitDx=0;exitDy=0;" parent="1" source="liRwYnTsoyuQuVsUjCXV-9" edge="1">
          <mxGeometry width="50" height="50" relative="1" as="geometry">
            <mxPoint x="290" y="520" as="sourcePoint" />
            <mxPoint x="285" y="370" as="targetPoint" />
          </mxGeometry>
        </mxCell>
        <mxCell id="BlkbCB-FxylbQSZlHxT3-20" value="Experiment Result:&lt;div&gt;Neutron Diffraction Data&lt;/div&gt;" style="sketch=0;pointerEvents=1;shadow=0;dashed=0;html=1;strokeColor=#67AB9F;fillColor=#505050;labelPosition=center;verticalLabelPosition=top;verticalAlign=bottom;outlineConnect=0;align=center;shape=mxgraph.office.concepts.document;fontColor=#67AB9F;" parent="1" vertex="1">
          <mxGeometry x="920" y="325" width="30" height="40" as="geometry" />
        </mxCell>
        <mxCell id="BlkbCB-FxylbQSZlHxT3-22" value="" style="shape=flexArrow;endArrow=classic;html=1;rounded=0;endSize=5;startSize=5;" parent="1" edge="1">
          <mxGeometry width="50" height="50" relative="1" as="geometry">
            <mxPoint x="710" y="344.81" as="sourcePoint" />
            <mxPoint x="750" y="345" as="targetPoint" />
            <Array as="points" />
          </mxGeometry>
        </mxCell>
        <mxCell id="BlkbCB-FxylbQSZlHxT3-23" value="" style="shape=flexArrow;endArrow=classic;html=1;rounded=0;endSize=5;startSize=5;strokeColor=#67AB9F;fontColor=#67AB9F;entryX=0.5;entryY=0;entryDx=0;entryDy=0;" parent="1" target="liRwYnTsoyuQuVsUjCXV-7" edge="1">
          <mxGeometry width="50" height="50" relative="1" as="geometry">
            <mxPoint x="935" y="370" as="sourcePoint" />
            <mxPoint x="985" y="460" as="targetPoint" />
            <Array as="points" />
          </mxGeometry>
        </mxCell>
        <mxCell id="liRwYnTsoyuQuVsUjCXV-1" value="" style="shape=flexArrow;endArrow=classic;html=1;rounded=0;endSize=5;startSize=5;strokeColor=#67AB9F;fontColor=#67AB9F;exitX=1;exitY=0.5;exitDx=0;exitDy=0;" parent="1" source="liRwYnTsoyuQuVsUjCXV-6" edge="1">
          <mxGeometry width="50" height="50" relative="1" as="geometry">
            <mxPoint x="810" y="380" as="sourcePoint" />
            <mxPoint x="910" y="345" as="targetPoint" />
            <Array as="points" />
          </mxGeometry>
        </mxCell>
        <mxCell id="liRwYnTsoyuQuVsUjCXV-11" value="MDF to OLCF" style="ellipse;whiteSpace=wrap;html=1;fillColor=none;labelPosition=right;verticalLabelPosition=middle;align=left;verticalAlign=middle;dashed=1;dashPattern=1 2;fontStyle=2;strokeColor=#007FFF;fontColor=#007FFF;" parent="1" vertex="1">
          <mxGeometry x="570" y="400" width="50" height="10" as="geometry" />
        </mxCell>
        <mxCell id="liRwYnTsoyuQuVsUjCXV-12" value="OLCF to MDF" style="ellipse;whiteSpace=wrap;html=1;fillColor=none;labelPosition=left;verticalLabelPosition=middle;align=right;verticalAlign=middle;dashed=1;dashPattern=1 2;fontStyle=2;strokeColor=#007FFF;fontColor=#007FFF;" parent="1" vertex="1">
          <mxGeometry x="350" y="400" width="50" height="10" as="geometry" />
        </mxCell>
        <mxCell id="liRwYnTsoyuQuVsUjCXV-14" value="SNS to SNS" style="ellipse;whiteSpace=wrap;html=1;fillColor=none;labelPosition=left;verticalLabelPosition=middle;align=right;verticalAlign=middle;dashed=1;dashPattern=1 2;fontStyle=2;strokeColor=#67AB9F;fontColor=#67AB9F;" parent="1" vertex="1">
          <mxGeometry x="915" y="400" width="40" height="10" as="geometry" />
        </mxCell>
        <mxCell id="liRwYnTsoyuQuVsUjCXV-16" value="SNS to ORNL" style="ellipse;whiteSpace=wrap;html=1;fillColor=none;labelPosition=center;verticalLabelPosition=top;align=center;verticalAlign=bottom;dashed=1;dashPattern=1 2;fontStyle=2;fontColor=#FF6666;strokeColor=#FF6666;rotation=0;" parent="1" vertex="1">
          <mxGeometry x="710" y="470" width="10" height="50" as="geometry" />
        </mxCell>
        <mxCell id="liRwYnTsoyuQuVsUjCXV-17" value="ORNL to MDF" style="ellipse;whiteSpace=wrap;html=1;fillColor=none;labelPosition=left;verticalLabelPosition=middle;align=right;verticalAlign=middle;dashed=1;dashPattern=1 2;fontStyle=2;strokeColor=#B5739D;fontColor=#B5739D;" parent="1" vertex="1">
          <mxGeometry x="265" y="425" width="40" height="10" as="geometry" />
        </mxCell>
        <mxCell id="liRwYnTsoyuQuVsUjCXV-23" value="System" style="endArrow=none;html=1;rounded=0;endFill=0;" parent="1" edge="1">
          <mxGeometry x="-0.003" width="50" height="50" relative="1" as="geometry">
            <mxPoint x="120" y="305.04999999999995" as="sourcePoint" />
            <mxPoint x="190" y="305.04999999999995" as="targetPoint" />
            <mxPoint as="offset" />
          </mxGeometry>
        </mxCell>
      </root>
    </mxGraphModel>
  </diagram>
</mxfile>
